<svg width="60" height="50" viewBox="0 0 60 50" fill="none" xmlns="http://www.w3.org/2000/svg">
<g id="Head">
<path id="Vector" d="M29.6459 50C46.0188 50 59.2917 38.8071 59.2917 25C59.2917 11.1929 46.0188 0 29.6459 0C13.2729 0 0 11.1929 0 25C0 38.8071 13.2729 50 29.6459 50Z" fill="#FACEDE"/>
<path id="Vector_2" d="M29.6459 50C46.0188 50 59.2917 38.8071 59.2917 25C59.2917 11.1929 46.0188 0 29.6459 0C13.2729 0 0 11.1929 0 25C0 38.8071 13.2729 50 29.6459 50Z" fill="#FACEDE"/>
<path id="Vector_3" d="M25.1461 25.0343C26.1762 24.0809 26.8342 22.8436 27.0293 21.5174C27.1131 20.9487 26.6402 20.5049 26.1041 20.5049C25.5528 20.5049 25.1418 20.9525 25.043 21.4534C24.876 22.3016 24.4334 23.0922 23.7619 23.7136C22.8912 24.5194 21.7076 24.9745 20.4704 24.9745C19.2333 24.9745 18.0496 24.5194 17.179 23.7136C16.5075 23.0922 16.065 22.3016 15.8979 21.4534C15.7992 20.9525 15.3881 20.5049 14.8368 20.5049C14.3007 20.5049 13.8278 20.9487 13.9115 21.5174C14.1066 22.8436 14.7647 24.0809 15.7948 25.0343C17.0372 26.1842 18.7193 26.828 20.4704 26.828C22.2216 26.828 23.9037 26.1842 25.1461 25.0343ZM43.2232 25.0343C44.2533 24.0809 44.9113 22.8436 45.1064 21.5174C45.1902 20.9487 44.7173 20.5049 44.1811 20.5049C43.6299 20.5049 43.2189 20.9525 43.1201 21.4534C42.9531 22.3016 42.5105 23.0922 41.839 23.7136C40.9683 24.5194 39.7847 24.9745 38.5475 24.9745C37.3106 24.9745 36.1267 24.5194 35.256 23.7136C34.5846 23.0922 34.1422 22.3016 33.975 21.4534C33.8764 20.9525 33.4653 20.5049 32.9139 20.5049C32.3777 20.5049 31.9049 20.9487 31.9886 21.5174C32.1837 22.8436 32.8419 24.0809 33.872 25.0343C35.1142 26.1842 36.7963 26.828 38.5475 26.828C40.2987 26.828 41.9808 26.1842 43.2232 25.0343ZM34.3055 34.0489C35.3068 33.1607 35.9581 32.0147 36.1739 30.7811C36.2807 30.1696 35.7681 29.6925 35.1938 29.6925C34.6016 29.6925 34.1636 30.1751 34.0359 30.7029C33.8573 31.4416 33.4412 32.1287 32.8243 32.6758C31.9814 33.4236 30.8336 33.8469 29.6329 33.8469C28.432 33.8469 27.2843 33.4236 26.4413 32.6758C25.8245 32.1287 25.4083 31.4416 25.2297 30.7029C25.1021 30.1751 24.664 29.6925 24.0718 29.6925C23.4976 29.6925 22.985 30.1696 23.092 30.7811C23.3076 32.0147 23.9589 33.1607 24.9601 34.0489C26.2027 35.1511 27.8839 35.7672 29.6329 35.7672C31.3817 35.7672 33.063 35.1511 34.3055 34.0489Z" fill="#996284" stroke="#996284" stroke-width="1.5"/>
<path id="Vector_4" d="M20.4705 31.2399C20.4705 32.817 18.3641 34.0956 15.7656 34.0956C13.1671 34.0956 11.0605 32.817 11.0605 31.2399C11.0605 29.6628 13.1671 28.3843 15.7656 28.3843C18.3641 28.3843 20.4705 29.6628 20.4705 31.2399Z" fill="#F8B5B5"/>
<path id="Vector_5" d="M48.2051 31.2399C48.2051 32.817 46.0987 34.0956 43.5002 34.0956C40.9017 34.0956 38.7952 32.817 38.7952 31.2399C38.7952 29.6628 40.9017 28.3843 43.5002 28.3843C46.0987 28.3843 48.2051 29.6628 48.2051 31.2399Z" fill="#F8B5B5"/>
</g>
</svg>
